<?xml version="1.0" encoding="utf-8"?>
<!-- Generator: Adobe Illustrator 18.0.0, SVG Export Plug-In . SVG Version: 6.00 Build 0)  -->
<!DOCTYPE svg PUBLIC "-//W3C//DTD SVG 1.1//EN" "http://www.w3.org/Graphics/SVG/1.1/DTD/svg11.dtd">
<svg version="1.1" id="Layer_1" xmlns="http://www.w3.org/2000/svg" xmlns:xlink="http://www.w3.org/1999/xlink" x="0px" y="0px"
	 viewBox="0 0 54 54" enable-background="new 0 0 54 54" xml:space="preserve">
<g>
	<path fill="none" stroke="#66C812" stroke-width="1.2" stroke-linecap="round" stroke-linejoin="round" stroke-miterlimit="10" d="
		M12,19.7v-4.2c0-0.5,0.4-0.9,0.9-0.9h21.8c0.5,0,0.9,0.4,0.9,0.9v18.1H12"/>
	<path fill="none" stroke="#66C812" stroke-width="1.2" stroke-linecap="round" stroke-linejoin="round" stroke-miterlimit="10" d="
		M35.5,24c0-0.5,0.4-0.9,0.9-0.9h5c0.5,0,1.1,0.3,1.4,0.6l3.1,3.3c0.3,0.3,0.9,0.9,1.3,1.1l3.3,2.4c0.4,0.3,0.7,0.9,0.7,1.4v3.7
		c0,0.5-0.4,0.9-0.9,0.9h-2"/>
	
		<line fill="none" stroke="#66C812" stroke-width="1.2" stroke-linecap="round" stroke-linejoin="round" stroke-miterlimit="10" x1="42.6" y1="36.6" x2="23.2" y2="36.6"/>
	
		<line fill="none" stroke="#66C812" stroke-width="1.2" stroke-linecap="round" stroke-linejoin="round" stroke-miterlimit="10" x1="17" y1="36.6" x2="12" y2="36.6"/>
	
		<line fill="none" stroke="#66C812" stroke-width="1.2" stroke-linecap="round" stroke-linejoin="round" stroke-miterlimit="10" x1="18.8" y1="22.3" x2="5.4" y2="22.3"/>
	
		<line fill="none" stroke="#66C812" stroke-width="1.2" stroke-linecap="round" stroke-linejoin="round" stroke-miterlimit="10" x1="22.9" y1="26.3" x2="2.7" y2="26.3"/>
	
		<line fill="none" stroke="#66C812" stroke-width="1.2" stroke-linecap="round" stroke-linejoin="round" stroke-miterlimit="10" x1="15.3" y1="30.2" x2="6.6" y2="30.2"/>
	
		<line fill="none" stroke="#66C812" stroke-width="1.2" stroke-linecap="round" stroke-linejoin="round" stroke-miterlimit="10" x1="40.7" y1="29" x2="48.2" y2="29"/>
	
		<circle fill="none" stroke="#66C812" stroke-width="1.2" stroke-linecap="round" stroke-linejoin="round" stroke-miterlimit="10" cx="20.3" cy="36.5" r="2.9"/>
	
		<circle fill="none" stroke="#66C812" stroke-width="1.2" stroke-linecap="round" stroke-linejoin="round" stroke-miterlimit="10" cx="45.4" cy="36.5" r="2.9"/>
</g>
</svg>
