<?xml version="1.0" encoding="utf-8"?>
<!-- Generator: Adobe Illustrator 18.0.0, SVG Export Plug-In . SVG Version: 6.00 Build 0)  -->
<!DOCTYPE svg PUBLIC "-//W3C//DTD SVG 1.1//EN" "http://www.w3.org/Graphics/SVG/1.1/DTD/svg11.dtd">
<svg version="1.1" id="Layer_1" xmlns="http://www.w3.org/2000/svg" xmlns:xlink="http://www.w3.org/1999/xlink" x="0px" y="0px"
	 viewBox="0 0 54 54" enable-background="new 0 0 54 54" xml:space="preserve">
<g>
	<path fill="none" stroke="#66C812" stroke-width="1.2" stroke-miterlimit="10" d="M49,39.5H5c-1.1,0-2-0.9-2-2v-28c0-1.1,0.9-2,2-2
		h44c1.1,0,2,0.9,2,2v28C51,38.6,50.1,39.5,49,39.5z"/>
	<line fill="none" stroke="#66C812" stroke-width="1.2" stroke-miterlimit="10" x1="2.9" y1="34" x2="51.1" y2="34"/>
	
		<line fill="none" stroke="#66C812" stroke-width="1.2" stroke-linecap="round" stroke-miterlimit="10" x1="9" y1="46.5" x2="45" y2="46.5"/>
	
		<polyline fill="none" stroke="#66C812" stroke-width="1.2" stroke-linecap="round" stroke-linejoin="round" stroke-miterlimit="10" points="
		18,46.3 18,43.6 36,43.6 36,46.3 	"/>
	<g>
		<g>
			
				<polyline fill="none" stroke="#66C812" stroke-width="1.2" stroke-linecap="round" stroke-linejoin="round" stroke-miterlimit="10" points="
				22.8,34 22.8,18.2 28.1,18.2 28.1,34 			"/>
			
				<polyline fill="none" stroke="#66C812" stroke-width="1.2" stroke-linecap="round" stroke-linejoin="round" stroke-miterlimit="10" points="
				23.1,17.8 25.6,12.9 28,17.8 			"/>
		</g>
		<g>
			
				<polyline fill="none" stroke="#66C812" stroke-width="1.2" stroke-linecap="round" stroke-linejoin="round" stroke-miterlimit="10" points="
				17,33.8 16.7,24.2 20,24.2 19.6,33.8 			"/>
			
				<polyline fill="none" stroke="#66C812" stroke-width="1.2" stroke-linecap="round" stroke-linejoin="round" stroke-miterlimit="10" points="
				16.7,24.2 18.3,21.1 19.9,24.2 			"/>
			
				<path fill="none" stroke="#66C812" stroke-width="1.2" stroke-linecap="round" stroke-linejoin="round" stroke-miterlimit="10" d="
				M20.4,18.1c0,2.1-1,2.8-2.1,2.8s-2.1-0.8-2.1-2.8s2.1-3.7,2.1-3.7S20.4,16.1,20.4,18.1z"/>
		</g>
		<g>
			
				<polyline fill="none" stroke="#66C812" stroke-width="1.2" stroke-linecap="round" stroke-linejoin="round" stroke-miterlimit="10" points="
				30.3,33.8 30.3,13.2 37.8,13.2 37.8,33.8 			"/>
			
				<line fill="none" stroke="#66C812" stroke-width="1.2" stroke-linecap="round" stroke-linejoin="round" stroke-miterlimit="10" x1="34.1" y1="17" x2="37.8" y2="17"/>
			
				<line fill="none" stroke="#66C812" stroke-width="1.2" stroke-linecap="round" stroke-linejoin="round" stroke-miterlimit="10" x1="34.1" y1="23.4" x2="37.8" y2="23.4"/>
			
				<line fill="none" stroke="#66C812" stroke-width="1.2" stroke-linecap="round" stroke-linejoin="round" stroke-miterlimit="10" x1="34.1" y1="29.8" x2="37.8" y2="29.8"/>
			
				<line fill="none" stroke="#66C812" stroke-width="1.2" stroke-linecap="round" stroke-linejoin="round" stroke-miterlimit="10" x1="35.4" y1="26.6" x2="37.8" y2="26.6"/>
			
				<line fill="none" stroke="#66C812" stroke-width="1.2" stroke-linecap="round" stroke-linejoin="round" stroke-miterlimit="10" x1="35.4" y1="20.2" x2="37.8" y2="20.2"/>
		</g>
	</g>
	<g>
		
			<line fill="none" stroke="#66C812" stroke-width="1.2" stroke-linecap="round" stroke-linejoin="round" stroke-miterlimit="10" x1="23.3" y1="39.5" x2="21.4" y2="43.6"/>
		
			<line fill="none" stroke="#66C812" stroke-width="1.2" stroke-linecap="round" stroke-linejoin="round" stroke-miterlimit="10" x1="31.6" y1="39.5" x2="33.5" y2="43.6"/>
	</g>
</g>
</svg>
