<?xml version="1.0" encoding="utf-8"?>
<!-- Generator: Adobe Illustrator 18.0.0, SVG Export Plug-In . SVG Version: 6.00 Build 0)  -->
<!DOCTYPE svg PUBLIC "-//W3C//DTD SVG 1.1//EN" "http://www.w3.org/Graphics/SVG/1.1/DTD/svg11.dtd">
<svg version="1.1" id="Layer_1" xmlns="http://www.w3.org/2000/svg" xmlns:xlink="http://www.w3.org/1999/xlink" x="0px" y="0px"
	 viewBox="0 0 49.7 47.9" enable-background="new 0 0 49.7 47.9" xml:space="preserve">
<g>
	<path fill="none" stroke="#66C812" stroke-width="1.2" stroke-linecap="round" stroke-linejoin="round" stroke-miterlimit="10" d="
		M36.2,15.5H13.4c-1.1,0-2-0.9-2-2V6c0-1.1,0.9-2,2-2h22.8c1.1,0,2,0.9,2,2v7.5C38.2,14.6,37.3,15.5,36.2,15.5z"/>
	<path fill="none" stroke="#66C812" stroke-width="1.2" stroke-linecap="round" stroke-linejoin="round" stroke-miterlimit="10" d="
		M35.9,28.9c0,0,2.3,11.4,2.3,12.8v0c0,1.3-1,2.3-2.3,2.3H14c-1.3,0-2.3-1-2.3-2.3v0c0-1.3,2.3-12.8,2.3-12.8"/>
	
		<line fill="none" stroke="#66C812" stroke-width="1.2" stroke-linecap="round" stroke-linejoin="round" stroke-miterlimit="10" x1="16.1" y1="33.4" x2="22.7" y2="33.4"/>
	
		<line fill="none" stroke="#66C812" stroke-width="1.2" stroke-linecap="round" stroke-linejoin="round" stroke-miterlimit="10" x1="14.9" y1="38.9" x2="23.2" y2="38.9"/>
	
		<line fill="none" stroke="#66C812" stroke-width="1.2" stroke-linecap="round" stroke-linejoin="round" stroke-miterlimit="10" x1="34" y1="33.4" x2="27.4" y2="33.4"/>
	
		<line fill="none" stroke="#66C812" stroke-width="1.2" stroke-linecap="round" stroke-linejoin="round" stroke-miterlimit="10" x1="35.2" y1="38.9" x2="26.9" y2="38.9"/>
	<g>
		
			<path fill="none" stroke="#66C812" stroke-width="1.2" stroke-linecap="round" stroke-linejoin="round" stroke-miterlimit="10" d="
			M4,18c0-2.9,2.4-5.3,5.3-5.3"/>
		
			<line fill="none" stroke="#66C812" stroke-width="1.2" stroke-linecap="round" stroke-linejoin="round" stroke-miterlimit="10" x1="4" y1="17.8" x2="4" y2="37.2"/>
		
			<path fill="none" stroke="#66C812" stroke-width="1.2" stroke-linecap="round" stroke-linejoin="round" stroke-miterlimit="10" d="
			M4,36.9c0,2.3,1.9,4.2,4.2,4.2v-1.9V28.5c0-2,1.7-3.7,3.7-3.7h13"/>
		
			<line fill="none" stroke="#66C812" stroke-width="1.2" stroke-linecap="round" stroke-linejoin="round" stroke-miterlimit="10" x1="4" y1="18.6" x2="24.9" y2="18.6"/>
	</g>
	<g>
		
			<path fill="none" stroke="#66C812" stroke-width="1.2" stroke-linecap="round" stroke-linejoin="round" stroke-miterlimit="10" d="
			M45.7,18c0-2.9-2.4-5.3-5.3-5.3"/>
		
			<line fill="none" stroke="#66C812" stroke-width="1.2" stroke-linecap="round" stroke-linejoin="round" stroke-miterlimit="10" x1="45.7" y1="17.8" x2="45.7" y2="37.2"/>
		
			<path fill="none" stroke="#66C812" stroke-width="1.2" stroke-linecap="round" stroke-linejoin="round" stroke-miterlimit="10" d="
			M45.7,36.9c0,2.3-1.9,4.2-4.2,4.2v-1.9V28.5c0-2-1.7-3.7-3.7-3.7h-13"/>
		
			<line fill="none" stroke="#66C812" stroke-width="1.2" stroke-linecap="round" stroke-linejoin="round" stroke-miterlimit="10" x1="45.7" y1="18.6" x2="24.8" y2="18.6"/>
	</g>
</g>
</svg>
