<?xml version="1.0" encoding="utf-8"?>
<!-- Generator: Adobe Illustrator 18.0.0, SVG Export Plug-In . SVG Version: 6.00 Build 0)  -->
<!DOCTYPE svg PUBLIC "-//W3C//DTD SVG 1.1//EN" "http://www.w3.org/Graphics/SVG/1.1/DTD/svg11.dtd">
<svg version="1.1" id="Layer_1" xmlns="http://www.w3.org/2000/svg" xmlns:xlink="http://www.w3.org/1999/xlink" x="0px" y="0px"
	 viewBox="0 0 61.1 47.9" enable-background="new 0 0 61.1 47.9" xml:space="preserve">
<g>
	
		<rect x="3" y="39.6" fill="none" stroke="#66C812" stroke-width="1.2" stroke-linecap="round" stroke-linejoin="round" stroke-miterlimit="10" width="53.4" height="4.3"/>
	
		<polyline fill="none" stroke="#66C812" stroke-width="1.2" stroke-linecap="round" stroke-linejoin="round" stroke-miterlimit="10" points="
		23.5,17.6 15.8,17.6 15.8,8.5 56.3,8.5 56.3,17.6 50.8,17.6 	"/>
	<g>
		
			<line fill="none" stroke="#66C812" stroke-width="1.2" stroke-linecap="round" stroke-linejoin="round" stroke-miterlimit="10" x1="4.9" y1="39.6" x2="4.9" y2="17.6"/>
		
			<line fill="none" stroke="#66C812" stroke-width="1.2" stroke-linecap="round" stroke-linejoin="round" stroke-miterlimit="10" x1="9.1" y1="17.6" x2="9.1" y2="39.6"/>
	</g>
	<g>
		
			<line fill="none" stroke="#66C812" stroke-width="1.2" stroke-linecap="round" stroke-linejoin="round" stroke-miterlimit="10" x1="50.9" y1="32.2" x2="50.9" y2="17.4"/>
		
			<line fill="none" stroke="#66C812" stroke-width="1.2" stroke-linecap="round" stroke-linejoin="round" stroke-miterlimit="10" x1="55.1" y1="17.6" x2="55.1" y2="32.2"/>
	</g>
	<g>
		
			<line fill="none" stroke="#66C812" stroke-width="1.2" stroke-linecap="round" stroke-linejoin="round" stroke-miterlimit="10" x1="50" y1="39.6" x2="50" y2="36.1"/>
		
			<line fill="none" stroke="#66C812" stroke-width="1.2" stroke-linecap="round" stroke-linejoin="round" stroke-miterlimit="10" x1="54.2" y1="36.1" x2="54.2" y2="39.6"/>
	</g>
	<path fill="none" stroke="#66C812" stroke-width="1.2" stroke-linecap="round" stroke-linejoin="round" stroke-miterlimit="10" d="
		M3,17.6V6.4C3,5.1,4.1,4,5.4,4h7.9c1.4,0,2.5,1.1,2.5,2.5v11.2H3z"/>
	<path fill="none" stroke="#66C812" stroke-width="1.2" stroke-linecap="round" stroke-linejoin="round" stroke-miterlimit="10" d="
		M46.7,13c2.3,0,4.1,1.8,4.1,4.1"/>
	<path fill="none" stroke="#66C812" stroke-width="1.2" stroke-linecap="round" stroke-linejoin="round" stroke-miterlimit="10" d="
		M26.8,35.9l28.2,0c1.7,0,3.1-1.4,3.1-3.1H29.9C29.9,34.5,28.5,35.9,26.8,35.9c-1.8,0-3.2-1.4-3.2-3.1V18c0-2.7-2.2-5-5-5
		c0,0,33.2,0,33.2,0"/>
	
		<circle fill="none" stroke="#66C812" stroke-width="1.2" stroke-linecap="round" stroke-linejoin="round" stroke-miterlimit="10" cx="37.8" cy="22.8" r="6.8"/>
	<path fill="none" stroke="#66C812" stroke-width="1.2" stroke-linecap="round" stroke-linejoin="round" stroke-miterlimit="10" d="
		M40.8,23.5c0,1.7-1.4,3-3,3c-1.7,0-3-1.4-3-3"/>
	<g>
		<circle fill="#66C812" cx="35" cy="20.9" r="1"/>
		<circle fill="#66C812" cx="40.6" cy="20.9" r="1"/>
	</g>
</g>
</svg>
