<?xml version="1.0" encoding="utf-8"?>
<!-- Generator: Adobe Illustrator 18.0.0, SVG Export Plug-In . SVG Version: 6.00 Build 0)  -->
<!DOCTYPE svg PUBLIC "-//W3C//DTD SVG 1.1//EN" "http://www.w3.org/Graphics/SVG/1.1/DTD/svg11.dtd">
<svg version="1.1" id="Layer_1" xmlns="http://www.w3.org/2000/svg" xmlns:xlink="http://www.w3.org/1999/xlink" x="0px" y="0px"
	 viewBox="0 0 223 113.1" enable-background="new 0 0 223 113.1" xml:space="preserve">
<g>
	<path fill-rule="evenodd" clip-rule="evenodd" fill="#FFFF00" d="M96.5,49l-11.7,0c0,7.2,4.5,13.2,11.7,13.4V49"/>
	<rect x="15.2" y="21.1" fill="#FFFFFF" width="3.9" height="22.3"/>
	<polyline fill="#FFFFFF" points="39,43.5 42.7,43.5 42.7,27.1 42.8,27.1 53,43.5 57.1,43.5 57.1,21.2 53.4,21.2 53.4,37.7 
		53.3,37.7 43.1,21.2 39,21.2 39,43.5 	"/>
	<polyline fill="#FFFFFF" points="25.7,86 31.1,86.3 31.1,50.4 64.7,50.4 64.7,85.9 70.1,85.9 70.1,21.3 64.7,21.3 64.7,45.9 
		31.1,45.9 31.1,21.3 25.7,21.3 25.7,86 	"/>
	<path fill-rule="evenodd" clip-rule="evenodd" fill="#00A0C6" d="M96.8,48.3l-11.6,0c0-7.2,4.3-13.2,11.6-13.4V48.3"/>
	<path fill-rule="evenodd" clip-rule="evenodd" fill="#F0047F" d="M97.4,48.3l11.7,0c0-7.2-4.5-13.2-11.7-13.4V48.3"/>
	<path fill-rule="evenodd" clip-rule="evenodd" fill="#72AF19" d="M97.4,48.9h11.7c-0.1,7.2-4.4,13.3-11.7,13.5V48.9"/>
	<path fill="#FFFFFF" d="M85.5,48.6c0-6.5,3.4-13.3,11.6-13.3c8.2,0,11.6,6.8,11.6,13.3c0,6.5-3.4,13.3-11.6,13.3
		C88.9,61.9,85.5,55.1,85.5,48.6 M81.1,48.6c0,8.8,5.4,16.9,16,16.9s16-8.1,16-16.9c0-8.8-5.4-16.9-16-16.9S81.1,39.8,81.1,48.6z"/>
	<path fill="#FFFFFF" d="M149.5,32.5h-4.5v20.6c0,5.7-3.1,8.8-8.7,8.8c-5.9,0-9.3-3.1-9.3-8.8V32.5h-4.5v20.6
		c0,8.6,5.1,12.4,13.7,12.4c8.4,0,13.2-4.3,13.2-12.4V32.5"/>
	<path fill="#FFFFFF" d="M183.5,41.9c-0.3-7.1-5.5-10.2-12.3-10.2c-6.1,0-12.2,2.9-12.2,9.5c0,5.9,5.4,7.4,10.7,8.6
		c5.3,1.1,10.7,1.9,10.7,6.3c0,4.7-4.5,5.9-8.5,5.9c-5.1,0-9.8-2.4-9.8-7.8H158c0,7.9,6.3,11.4,13.8,11.4c6.1,0,13.1-2.8,13.1-9.6
		c0-6.3-5.3-8.1-10.7-9.3c-5.4-1.2-10.7-1.8-10.7-5.7c0-4.2,3.8-5.5,7.5-5.5c4.6,0,7.8,2,8.3,6.6H183.5"/>
	<polyline fill="#FFFFFF" points="193.6,64.8 216.8,64.8 216.8,61.2 198,61.2 198,50 215.4,50 215.4,46.4 198,46.4 198,36.1 
		216.7,36.1 216.7,32.5 193.6,32.5 193.6,64.8 	"/>
	<rect x="96.5" y="18.8" fill="#FFFFFF" width="1.1" height="67.3"/>
	<rect x="73.3" y="47.9" fill="#FFFFFF" width="47.3" height="1.1"/>
	<polyline fill-rule="evenodd" clip-rule="evenodd" fill="#FFFFFF" points="2,23.2 41.8,4.2 81.2,23 82.8,19.8 41.8,0.2 0.5,19.8 
		2,23.2 	"/>
	<path fill="#FFFFFF" d="M76.4,71.6h1.8c0.5,0,0.9,0.1,1.2,0.3c0.2,0.2,0.4,0.5,0.4,1c0,0.4-0.1,0.7-0.4,1c-0.2,0.2-0.6,0.3-1.2,0.3
		h-1.8V71.6 M75.5,77.8h0.9v-2.9h2.1c0.7,0,1.2-0.2,1.6-0.5c0.4-0.4,0.5-0.9,0.5-1.5c0-0.7-0.2-1.2-0.5-1.5
		c-0.4-0.4-0.9-0.5-1.6-0.5h-3.1V77.8z"/>
	<polyline fill="#FFFFFF" points="83.4,77.8 84.3,77.8 84.3,71.6 86.6,71.6 86.6,70.8 81,70.8 81,71.6 83.4,71.6 83.4,77.8 	"/>
	<polyline fill="#FFFFFF" points="93,70.8 91.9,70.8 89.9,74.1 87.8,70.8 86.7,70.8 89.4,74.9 89.4,77.8 90.3,77.8 90.3,74.9 
		93,70.8 	"/>
	<polyline fill="#FFFFFF" points="75.5,86.3 80.1,86.3 80.1,85.5 76.4,85.5 76.4,79.3 75.5,79.3 75.5,86.3 	"/>
	<polyline fill="#FFFFFF" points="82.5,86.3 83.4,86.3 83.4,80.1 85.7,80.1 85.7,79.3 80.1,79.3 80.1,80.1 82.5,80.1 82.5,86.3 	"/>
	<path fill="#FFFFFF" d="M87.4,80.1H89c0.4,0,0.8,0.1,1.1,0.2c0.3,0.1,0.5,0.3,0.7,0.5c0.2,0.2,0.3,0.5,0.4,0.8
		c0.1,0.3,0.1,0.7,0.1,1.1c0,0.4,0,0.8-0.1,1.1c-0.1,0.3-0.2,0.6-0.3,0.8c-0.1,0.2-0.3,0.4-0.5,0.5c-0.2,0.1-0.3,0.2-0.5,0.3
		c-0.2,0.1-0.3,0.1-0.5,0.1c-0.2,0-0.3,0-0.4,0h-1.5V80.1 M86.5,86.3h2.4c0.6,0,1.1-0.1,1.5-0.2c0.4-0.2,0.8-0.4,1-0.7
		c0.3-0.3,0.5-0.7,0.6-1.1c0.1-0.5,0.2-1,0.2-1.6c0-1.1-0.3-2-0.9-2.5c-0.6-0.5-1.4-0.8-2.5-0.8h-2.4V86.3z"/>
	<g>
		<path fill="#F0047F" d="M103.4,71.1h4.7c0.9,0,1.7,0.3,2.3,0.8c0.6,0.5,0.9,1.3,0.9,2.2c0,0.8-0.3,1.5-0.8,2.2
			c-0.5,0.6-1.3,0.9-2.4,0.9h-3.3v4.5h-1.4V71.1z M108.9,72.5c-0.3-0.1-0.7-0.2-1.3-0.2h-2.8v3.7h2.8c0.6,0,1.2-0.1,1.6-0.4
			c0.4-0.3,0.6-0.8,0.6-1.4C109.8,73.3,109.5,72.8,108.9,72.5z"/>
		<path fill="#F0047F" d="M113.4,71.1h4.8c0.8,0,1.4,0.1,2,0.4c1,0.5,1.5,1.3,1.5,2.5c0,0.6-0.1,1.1-0.4,1.6c-0.3,0.4-0.6,0.7-1.1,1
			c0.4,0.2,0.7,0.4,0.9,0.7c0.2,0.3,0.3,0.7,0.3,1.3l0.1,1.4c0,0.4,0,0.7,0.1,0.9c0.1,0.3,0.2,0.6,0.5,0.6v0.2h-1.8
			c0-0.1-0.1-0.2-0.1-0.4c0-0.1-0.1-0.4-0.1-0.8l-0.1-1.8c0-0.7-0.3-1.2-0.7-1.4c-0.3-0.1-0.7-0.2-1.2-0.2h-3.2v4.5h-1.4V71.1z
			 M118.1,75.9c0.7,0,1.2-0.1,1.5-0.4c0.4-0.3,0.6-0.8,0.6-1.5c0-0.8-0.3-1.3-0.8-1.5c-0.3-0.1-0.7-0.2-1.1-0.2h-3.4v3.6H118.1z"/>
		<path fill="#F0047F" d="M124.4,71.1h1.4v10.5h-1.4V71.1z"/>
		<path fill="#F0047F" d="M128.4,71.1h1.7l5.3,8.5v-8.5h1.4v10.5h-1.6l-5.3-8.5v8.5h-1.4V71.1z"/>
		<path fill="#F0047F" d="M146.9,71.1v1.3h-3.6v9.3h-1.4v-9.3h-3.6v-1.3H146.9z"/>
		<path fill="#F0047F" d="M153.5,74.4c-0.2-0.3-0.2-0.7-0.2-1c0-0.7,0.2-1.2,0.7-1.7c0.5-0.4,1.1-0.7,1.8-0.7c0.7,0,1.3,0.2,1.7,0.6
			c0.4,0.4,0.6,0.9,0.6,1.5c0,0.7-0.2,1.3-0.6,1.8c-0.2,0.3-0.7,0.6-1.2,1l1.9,2.3c0.1-0.4,0.2-0.7,0.3-0.9c0-0.2,0.1-0.5,0.2-0.8
			h1.2c-0.1,0.7-0.2,1.3-0.5,1.9s-0.4,0.9-0.4,0.8l1.9,2.3h-1.7l-1-1.2c-0.4,0.4-0.7,0.7-1.1,0.9c-0.6,0.3-1.2,0.5-2,0.5
			c-1.1,0-1.9-0.3-2.4-0.9c-0.5-0.6-0.7-1.3-0.7-2c0-0.8,0.2-1.5,0.7-2c0.3-0.3,0.8-0.7,1.7-1.2C154,75.2,153.7,74.8,153.5,74.4z
			 M156.6,80.3c0.4-0.2,0.7-0.5,0.9-0.8l-2.4-2.9c-0.7,0.5-1.1,0.8-1.3,1c-0.3,0.4-0.5,0.8-0.5,1.3c0,0.6,0.2,1,0.6,1.3
			s0.8,0.5,1.3,0.5C155.8,80.7,156.2,80.6,156.6,80.3z M156.5,74.4c0.3-0.3,0.4-0.7,0.4-1.1c0-0.3-0.1-0.6-0.3-0.8
			c-0.2-0.2-0.5-0.3-0.8-0.3c-0.5,0-0.9,0.2-1.1,0.5c-0.1,0.2-0.2,0.4-0.2,0.6c0,0.3,0.1,0.6,0.2,0.8c0.2,0.3,0.4,0.6,0.8,1
			C156,74.8,156.3,74.6,156.5,74.4z"/>
		<path fill="#F0047F" d="M166.9,71.1h4.2c1.4,0,2.5,0.5,3.3,1.5c0.7,0.9,1.1,2.1,1.1,3.6c0,1.1-0.2,2.1-0.6,3
			c-0.7,1.6-2,2.4-3.8,2.4h-4.2V71.1z M170.8,80.4c0.5,0,0.9-0.1,1.2-0.2c0.5-0.2,1-0.5,1.3-1.1c0.3-0.4,0.5-1,0.6-1.6
			c0.1-0.4,0.1-0.8,0.1-1.1c0-1.3-0.3-2.3-0.8-3c-0.5-0.7-1.3-1.1-2.5-1.1h-2.5v8.1H170.8z"/>
		<path fill="#F0047F" d="M177.8,71.1h7.7v1.3h-6.3v3.2h5.8v1.2h-5.8v3.6h6.4v1.3h-7.8V71.1z"/>
		<path fill="#F0047F" d="M188.7,78.2c0,0.6,0.2,1.1,0.4,1.5c0.5,0.7,1.3,1,2.4,1c0.5,0,1-0.1,1.4-0.2c0.8-0.3,1.2-0.8,1.2-1.6
			c0-0.6-0.2-1-0.5-1.2c-0.4-0.2-0.9-0.4-1.7-0.6l-1.4-0.3c-0.9-0.2-1.5-0.4-1.9-0.7c-0.6-0.4-1-1.1-1-2c0-0.9,0.3-1.7,1-2.3
			c0.6-0.6,1.5-0.9,2.7-0.9c1.1,0,2,0.3,2.7,0.8c0.8,0.5,1.1,1.4,1.1,2.6h-1.3c-0.1-0.6-0.2-1-0.4-1.3c-0.4-0.6-1.1-0.8-2.1-0.8
			c-0.8,0-1.4,0.2-1.7,0.5s-0.5,0.8-0.5,1.2c0,0.5,0.2,0.9,0.6,1.1c0.3,0.2,0.9,0.3,1.9,0.6l1.4,0.3c0.7,0.2,1.2,0.4,1.6,0.7
			c0.6,0.5,1,1.2,1,2.1c0,1.2-0.4,2-1.2,2.5c-0.8,0.5-1.8,0.8-2.9,0.8c-1.3,0-2.3-0.3-3-1c-0.7-0.7-1.1-1.6-1.1-2.7H188.7z"/>
		<path fill="#F0047F" d="M198.1,71.1h1.4v10.5h-1.4V71.1z"/>
		<path fill="#F0047F" d="M209.1,71.4c1,0.5,1.7,1.5,1.9,2.9h-1.4c-0.2-0.8-0.5-1.3-1-1.7c-0.5-0.4-1.2-0.5-2-0.5
			c-1,0-1.8,0.4-2.4,1.1c-0.7,0.7-1,1.8-1,3.3c0,1.3,0.3,2.3,0.8,3.1c0.5,0.8,1.4,1.2,2.6,1.2c0.9,0,1.7-0.3,2.3-0.8
			s0.9-1.4,0.9-2.7h-3.3V76h4.6v5.6h-0.9l-0.3-1.4c-0.5,0.5-0.9,0.9-1.3,1.1c-0.6,0.4-1.4,0.5-2.4,0.5c-1.2,0-2.3-0.4-3.2-1.2
			c-1-1-1.4-2.4-1.4-4.2c0-1.8,0.5-3.2,1.4-4.2c0.9-1,2.1-1.5,3.5-1.5C207.5,70.8,208.4,71,209.1,71.4z"/>
		<path fill="#F0047F" d="M213.7,71.1h1.7l5.3,8.5v-8.5h1.4v10.5h-1.6l-5.3-8.5v8.5h-1.4V71.1z"/>
		<path fill="#00A0C6" d="M103.4,86.1h4.7c0.9,0,1.7,0.3,2.3,0.8c0.6,0.5,0.9,1.3,0.9,2.2c0,0.8-0.3,1.5-0.8,2.2
			c-0.5,0.6-1.3,0.9-2.4,0.9h-3.3v4.5h-1.4V86.1z M108.9,87.5c-0.3-0.1-0.7-0.2-1.3-0.2h-2.8v3.7h2.8c0.6,0,1.2-0.1,1.6-0.4
			c0.4-0.3,0.6-0.8,0.6-1.4C109.8,88.3,109.5,87.8,108.9,87.5z"/>
		<path fill="#00A0C6" d="M114.8,86.1v6.5c0,0.8,0.1,1.4,0.4,1.9c0.4,0.8,1.2,1.1,2.2,1.1c1.2,0,2.1-0.4,2.5-1.2
			c0.2-0.5,0.4-1.1,0.4-1.8v-6.5h1.4V92c0,1.3-0.2,2.3-0.5,3c-0.6,1.3-1.9,1.9-3.6,1.9c-1.8,0-3-0.6-3.6-1.9c-0.4-0.7-0.5-1.7-0.5-3
			v-5.9H114.8z"/>
		<path fill="#00A0C6" d="M124.1,86.1h4.6c1.2,0,2.1,0.4,2.7,1.1c0.3,0.4,0.5,0.9,0.5,1.5c0,0.7-0.2,1.2-0.6,1.6
			c-0.2,0.2-0.5,0.4-0.8,0.6c0.5,0.2,0.9,0.4,1.2,0.7c0.5,0.5,0.7,1.1,0.7,1.9c0,0.7-0.2,1.3-0.6,1.8c-0.6,0.8-1.7,1.2-3.1,1.2h-4.5
			V86.1z M128.1,90.5c0.6,0,1.1-0.1,1.4-0.3c0.5-0.3,0.8-0.7,0.8-1.4c0-0.7-0.3-1.2-0.8-1.4c-0.3-0.1-0.8-0.2-1.4-0.2h-2.6v3.3
			H128.1z M128.6,95.4c0.9,0,1.5-0.3,1.9-0.8c0.2-0.3,0.4-0.7,0.4-1.2c0-0.8-0.3-1.3-1-1.6c-0.4-0.1-0.9-0.2-1.5-0.2h-2.9v3.7H128.6
			z"/>
		<path fill="#00A0C6" d="M134.1,86.1h1.4v9.3h5.3v1.3h-6.7V86.1z"/>
		<path fill="#00A0C6" d="M142.9,86.1h1.4v10.5h-1.4V86.1z"/>
		<path fill="#00A0C6" d="M147.8,93.2c0,0.6,0.2,1.1,0.4,1.5c0.5,0.7,1.3,1,2.4,1c0.5,0,1-0.1,1.4-0.2c0.8-0.3,1.2-0.8,1.2-1.6
			c0-0.6-0.2-1-0.5-1.2c-0.4-0.2-0.9-0.4-1.7-0.6l-1.4-0.3c-0.9-0.2-1.5-0.4-1.9-0.7c-0.6-0.4-1-1.1-1-2c0-0.9,0.3-1.7,1-2.3
			c0.6-0.6,1.5-0.9,2.7-0.9c1.1,0,2,0.3,2.7,0.8c0.8,0.5,1.1,1.4,1.1,2.6H153c-0.1-0.6-0.2-1-0.4-1.3c-0.4-0.6-1.1-0.8-2.1-0.8
			c-0.8,0-1.4,0.2-1.7,0.5s-0.5,0.8-0.5,1.2c0,0.5,0.2,0.9,0.6,1.1c0.3,0.2,0.9,0.3,1.9,0.6l1.4,0.3c0.7,0.2,1.2,0.4,1.6,0.7
			c0.6,0.5,1,1.2,1,2.1c0,1.2-0.4,2-1.2,2.5c-0.8,0.5-1.8,0.8-2.9,0.8c-1.3,0-2.3-0.3-3-1c-0.7-0.7-1.1-1.6-1.1-2.7H147.8z"/>
		<path fill="#00A0C6" d="M156.9,86.1h1.4v4.4h5.4v-4.4h1.4v10.5h-1.4v-4.9h-5.4v4.9h-1.4V86.1z"/>
		<path fill="#00A0C6" d="M168,86.1h1.4v10.5H168V86.1z"/>
		<path fill="#00A0C6" d="M172,86.1h1.7l5.3,8.5v-8.5h1.4v10.5h-1.6l-5.3-8.5v8.5H172V86.1z"/>
		<path fill="#00A0C6" d="M189.9,86.4c1,0.5,1.7,1.5,1.9,2.9h-1.4c-0.2-0.8-0.5-1.3-1-1.7c-0.5-0.4-1.2-0.5-2-0.5
			c-1,0-1.8,0.4-2.4,1.1c-0.7,0.7-1,1.8-1,3.3c0,1.3,0.3,2.3,0.8,3.1c0.5,0.8,1.4,1.2,2.6,1.2c0.9,0,1.7-0.3,2.3-0.8
			s0.9-1.4,0.9-2.7h-3.3V91h4.6v5.6H191l-0.3-1.4c-0.5,0.5-0.9,0.9-1.3,1.1c-0.6,0.4-1.4,0.5-2.4,0.5c-1.2,0-2.3-0.4-3.2-1.2
			c-1-1-1.4-2.4-1.4-4.2c0-1.8,0.5-3.2,1.4-4.2c0.9-1,2.1-1.5,3.5-1.5C188.3,85.8,189.2,86,189.9,86.4z"/>
		<path fill="#72AF19" d="M104.2,108.2c0,0.6,0.2,1.1,0.4,1.5c0.5,0.7,1.3,1,2.4,1c0.5,0,1-0.1,1.4-0.2c0.8-0.3,1.2-0.8,1.2-1.6
			c0-0.6-0.2-1-0.5-1.2c-0.4-0.2-0.9-0.4-1.7-0.6l-1.4-0.3c-0.9-0.2-1.5-0.4-1.9-0.7c-0.6-0.4-1-1.1-1-2c0-0.9,0.3-1.7,1-2.3
			c0.6-0.6,1.5-0.9,2.7-0.9c1.1,0,2,0.3,2.7,0.8c0.8,0.5,1.1,1.4,1.1,2.6h-1.3c-0.1-0.6-0.2-1-0.4-1.3c-0.4-0.6-1.1-0.8-2.1-0.8
			c-0.8,0-1.4,0.2-1.7,0.5s-0.5,0.8-0.5,1.2c0,0.5,0.2,0.9,0.6,1.1c0.3,0.2,0.9,0.3,1.9,0.6l1.4,0.3c0.7,0.2,1.2,0.4,1.6,0.7
			c0.6,0.5,1,1.2,1,2.1c0,1.2-0.4,2-1.2,2.5s-1.8,0.8-2.9,0.8c-1.3,0-2.3-0.3-3-1c-0.7-0.7-1.1-1.6-1.1-2.7H104.2z"/>
		<path fill="#72AF19" d="M113.6,101.1h1.4v10.5h-1.4V101.1z"/>
		<path fill="#72AF19" d="M124.6,101.4c1,0.5,1.7,1.5,1.9,2.9h-1.4c-0.2-0.8-0.5-1.3-1-1.7c-0.5-0.4-1.2-0.5-2-0.5
			c-1,0-1.8,0.4-2.4,1.1c-0.7,0.7-1,1.8-1,3.3c0,1.3,0.3,2.3,0.8,3.1c0.5,0.8,1.4,1.2,2.6,1.2c0.9,0,1.7-0.3,2.3-0.8
			s0.9-1.4,0.9-2.7H122V106h4.6v5.6h-0.9l-0.3-1.4c-0.5,0.5-0.9,0.9-1.3,1.1c-0.6,0.4-1.4,0.5-2.4,0.5c-1.2,0-2.3-0.4-3.2-1.2
			c-1-1-1.4-2.4-1.4-4.2c0-1.8,0.5-3.2,1.4-4.2c0.9-1,2.1-1.5,3.5-1.5C123,100.8,123.9,101,124.6,101.4z"/>
		<path fill="#72AF19" d="M129.2,101.1h1.7l5.3,8.5v-8.5h1.4v10.5h-1.6l-5.3-8.5v8.5h-1.4V101.1z"/>
		<path fill="#72AF19" d="M141,108.2c0,0.6,0.2,1.1,0.4,1.5c0.5,0.7,1.3,1,2.4,1c0.5,0,1-0.1,1.4-0.2c0.8-0.3,1.2-0.8,1.2-1.6
			c0-0.6-0.2-1-0.5-1.2c-0.4-0.2-0.9-0.4-1.7-0.6l-1.4-0.3c-0.9-0.2-1.5-0.4-1.9-0.7c-0.6-0.4-1-1.1-1-2c0-0.9,0.3-1.7,1-2.3
			c0.6-0.6,1.5-0.9,2.7-0.9c1.1,0,2,0.3,2.7,0.8c0.8,0.5,1.1,1.4,1.1,2.6h-1.3c-0.1-0.6-0.2-1-0.4-1.3c-0.4-0.6-1.1-0.8-2.1-0.8
			c-0.8,0-1.4,0.2-1.7,0.5s-0.5,0.8-0.5,1.2c0,0.5,0.2,0.9,0.6,1.1c0.3,0.2,0.9,0.3,1.9,0.6l1.4,0.3c0.7,0.2,1.2,0.4,1.6,0.7
			c0.6,0.5,1,1.2,1,2.1c0,1.2-0.4,2-1.2,2.5c-0.8,0.5-1.8,0.8-2.9,0.8c-1.3,0-2.3-0.3-3-1c-0.7-0.7-1.1-1.6-1.1-2.7H141z"/>
	</g>
</g>
</svg>
