<?xml version="1.0" encoding="utf-8"?>
<!-- Generator: Adobe Illustrator 18.0.0, SVG Export Plug-In . SVG Version: 6.00 Build 0)  -->
<!DOCTYPE svg PUBLIC "-//W3C//DTD SVG 1.1//EN" "http://www.w3.org/Graphics/SVG/1.1/DTD/svg11.dtd">
<svg version="1.1" id="Layer_1" xmlns="http://www.w3.org/2000/svg" xmlns:xlink="http://www.w3.org/1999/xlink" x="0px" y="0px"
	 viewBox="0 0 50 50" enable-background="new 0 0 50 50" xml:space="preserve">
<g>
	<defs>
		<path id="SVGID_1_" d="M33.5,28.6c-1.3,0-2.6-0.2-3.7-0.6c-0.4-0.1-0.8,0-1.1,0.3L27,30.3c-3-1.4-5.8-4.1-7.3-7.2l2.1-1.8
			c0.3-0.3,0.4-0.7,0.3-1.1c-0.4-1.2-0.6-2.4-0.6-3.7c0-0.6-0.5-1-1-1h-3.7c-0.6,0-1.3,0.3-1.3,1c0,9.8,8.2,18,18,18
			c0.7,0,1-0.7,1-1.2v-3.6C34.5,29,34,28.6,33.5,28.6"/>
	</defs>
	<clipPath id="SVGID_2_">
		<use xlink:href="#SVGID_1_"  overflow="visible"/>
	</clipPath>
	<g clip-path="url(#SVGID_2_)">
		<defs>
			<rect id="SVGID_3_" x="-770.5" y="-344.5" width="1920" height="2675"/>
		</defs>
		<clipPath id="SVGID_4_">
			<use xlink:href="#SVGID_3_"  overflow="visible"/>
		</clipPath>
		<rect x="10.5" y="10.5" clip-path="url(#SVGID_4_)" fill="#5D5D5D" width="29" height="29"/>
	</g>
</g>
</svg>
