<?xml version="1.0" encoding="utf-8"?>
<!-- Generator: Adobe Illustrator 18.0.0, SVG Export Plug-In . SVG Version: 6.00 Build 0)  -->
<!DOCTYPE svg PUBLIC "-//W3C//DTD SVG 1.1//EN" "http://www.w3.org/Graphics/SVG/1.1/DTD/svg11.dtd">
<svg version="1.1" id="Layer_1" xmlns="http://www.w3.org/2000/svg" xmlns:xlink="http://www.w3.org/1999/xlink" x="0px" y="0px"
	 viewBox="0 0 40.4 41.6" enable-background="new 0 0 40.4 41.6" xml:space="preserve">
<g>
	<path fill="none" stroke="#66C812" stroke-width="1.2" stroke-linecap="round" stroke-miterlimit="10" d="M35.1,9.6
		c2,0,3.6-1.6,3.6-3.6s-1.6-3.6-3.6-3.6c-2,0-3.6,1.6-3.6,3.6V5.8v29.8"/>
	<path fill="none" stroke="#66C812" stroke-width="1.2" stroke-linecap="round" stroke-miterlimit="10" d="M7.3,32.2V7.3
		c0-2.8,2.2-5,5-5h22.8"/>
	<path fill="none" stroke="#66C812" stroke-width="1.2" stroke-linecap="round" stroke-linejoin="round" stroke-miterlimit="10" d="
		M31.5,35.8c0,1.9-1.6,3.5-3.5,3.5s-3.5-1.6-3.5-3.5s1.6-3.5,3.5-3.5H5.1h0.1c-1.9,0-3.5,1.6-3.5,3.5s1.6,3.5,3.5,3.5H5.1h22.8"/>
	
		<line fill="none" stroke="#66C812" stroke-width="1.2" stroke-linecap="round" stroke-miterlimit="10" x1="10.8" y1="8.6" x2="18.8" y2="8.6"/>
	
		<line fill="none" stroke="#66C812" stroke-width="1.2" stroke-linecap="round" stroke-miterlimit="10" x1="10.8" y1="12.5" x2="28.3" y2="12.5"/>
	
		<line fill="none" stroke="#66C812" stroke-width="1.2" stroke-linecap="round" stroke-miterlimit="10" x1="10.8" y1="16.2" x2="28.3" y2="16.2"/>
	
		<line fill="none" stroke="#66C812" stroke-width="1.2" stroke-linecap="round" stroke-miterlimit="10" x1="10.8" y1="20.1" x2="28.3" y2="20.1"/>
	
		<line fill="none" stroke="#66C812" stroke-width="1.2" stroke-linecap="round" stroke-miterlimit="10" x1="10.8" y1="23.9" x2="28.3" y2="23.9"/>
	
		<line fill="none" stroke="#66C812" stroke-width="1.2" stroke-linecap="round" stroke-miterlimit="10" x1="10.8" y1="27.7" x2="28.3" y2="27.7"/>
</g>
</svg>
