<?xml version="1.0" encoding="UTF-8"?>
<svg width="20px" height="19px" viewBox="0 0 20 19" version="1.1" xmlns="http://www.w3.org/2000/svg" xmlns:xlink="http://www.w3.org/1999/xlink">
    <!-- Generator: Sketch 55.2 (78181) - https://sketchapp.com -->
    <title>Icons/User Copy</title>
    <desc>Created with Sketch.</desc>
    <g id="Page-1" stroke="none" stroke-width="1" fill="none" fill-rule="evenodd">
        <g id="Sub-page" transform="translate(-133.000000, -3007.000000)" fill="#66C812">
            <g id="Icons/User-Copy" transform="translate(133.000000, 3007.000000)">
                <path d="M15.13,14.0192857 C17.7528703,14.9964335 19.0642857,15.8242823 19.0642857,16.5028571 L19.0642857,18.6607143 L10,18.6607143 L0.935714286,18.6607143 L0.935714286,16.5028571 C0.935714286,15.8242823 2.24712974,14.9964335 4.87,14.0192857 C6.07857747,13.5578548 6.90142639,13.0896452 7.33857143,12.6146429 C7.77571647,12.1396405 7.99428571,11.4950041 7.99428571,10.6807143 C7.99428571,10.3821414 7.85285856,10.0496447 7.57,9.68321429 C7.28714144,9.31678388 7.08142921,8.82143169 6.95285714,8.19714286 C6.92714273,8.0342849 6.86928616,7.91214326 6.77928571,7.83071429 C6.68928526,7.74928531 6.59928616,7.69500014 6.50928571,7.66785714 C6.41928526,7.64071415 6.32928616,7.52535816 6.23928571,7.32178571 C6.14928526,7.11821327 6.0914287,6.82643047 6.06571429,6.44642857 C6.06571429,6.22928463 6.09785682,6.05285782 6.16214286,5.91714286 C6.22642889,5.78142789 6.28428546,5.70000014 6.33571429,5.67285714 L6.41285714,5.59142857 C6.30999949,4.91285375 6.2328574,4.31571686 6.18142857,3.8 C6.12999974,3.06713919 6.39356854,2.30714679 6.97214286,1.52 C7.55071718,0.732853207 8.5599928,0.339285714 10,0.339285714 C11.4400072,0.339285714 12.4557113,0.732853207 13.0471429,1.52 C13.6385744,2.30714679 13.8957147,3.06713919 13.8185714,3.8 L13.5871429,5.59142857 C13.8185726,5.70000054 13.9342857,5.98499769 13.9342857,6.44642857 C13.9085713,6.82643047 13.8507147,7.11821327 13.7607143,7.32178571 C13.6707138,7.52535816 13.5807147,7.64071415 13.4907143,7.66785714 C13.4007138,7.69500014 13.3107147,7.74928531 13.2207143,7.83071429 C13.1307138,7.91214326 13.0728573,8.0342849 13.0471429,8.19714286 C12.9442852,8.84857469 12.7450015,9.35071252 12.4492857,9.70357143 C12.15357,10.0564303 12.0057143,10.3821414 12.0057143,10.6807143 C12.0057143,11.4950041 12.230712,12.1396405 12.6807143,12.6146429 C13.1307165,13.0896452 13.9471369,13.5578548 15.13,14.0192857 L15.13,14.0192857 Z" id="user"></path>
            </g>
        </g>
    </g>
</svg>